<svg xmlns="http://www.w3.org/2000/svg" width="23.253" height="23.253" viewBox="0 0 23.253 23.253"><defs><style>.a{fill:#ff775b;}</style></defs><path class="a" d="M23.181,6.936l-2.019-4.73A3.628,3.628,0,0,0,17.821,0H5.434A3.628,3.628,0,0,0,2.092,2.206L.074,6.936A.909.909,0,0,0,0,7.293V8.474a3.046,3.046,0,0,0,1.817,2.784v8.362a3.637,3.637,0,0,0,3.633,3.633H8.9a.908.908,0,0,0,.908-.908V15.123h3.633v7.221a.908.908,0,0,0,.908.908H17.8a3.637,3.637,0,0,0,3.633-3.633v-.908a.908.908,0,0,0-.908-.908H15.261V14.215a.908.908,0,0,0-.908-.908H8.9a.908.908,0,0,0-.908.908V17.8H3.634V11.459a3.037,3.037,0,0,0,1.544-.819,3.037,3.037,0,0,0,4.283-.013,3.082,3.082,0,0,0,4.333,0,3.037,3.037,0,0,0,4.283.013,3.038,3.038,0,0,0,1.544.819v2.711a.908.908,0,1,0,1.817,0V11.258a3.047,3.047,0,0,0,1.817-2.784V7.293a.909.909,0,0,0-.073-.357Zm-7.92,12.683h4.36A1.819,1.819,0,0,1,17.8,21.436H15.261ZM3.763,2.92a1.814,1.814,0,0,1,1.671-1.1H17.821a1.814,1.814,0,0,1,1.671,1.1l1.467,3.438H2.3Zm4.231,16.7v1.817H5.451a1.819,1.819,0,0,1-1.817-1.817ZM3.044,9.7A1.228,1.228,0,0,1,1.817,8.474v-.3H4.27v.3A1.228,1.228,0,0,1,3.044,9.7Zm5.5-1.226a1.226,1.226,0,1,1-2.452,0v-.3H8.539ZM11.627,9.7a1.273,1.273,0,0,1-1.272-1.272V8.174H12.9v.254A1.273,1.273,0,0,1,11.627,9.7Zm4.315,0a1.228,1.228,0,0,1-1.226-1.226v-.3h2.452v.3A1.228,1.228,0,0,1,15.942,9.7Zm4.269,0a1.228,1.228,0,0,1-1.226-1.226v-.3h2.452v.3A1.228,1.228,0,0,1,20.211,9.7Zm0,0" transform="translate(-0.001 0.001)"/></svg>