<svg xmlns="http://www.w3.org/2000/svg" width="20" height="20" viewBox="0 0 20 20"><defs><style>.a{fill:#ff775b;}</style></defs><path class="a" d="M20.5,6.719V9.844a.781.781,0,0,1-.781.781H19.2l-.329,2.929a.781.781,0,0,1-1.553-.174l.407-3.623a.781.781,0,0,1,.776-.694h.431V7.5H2.062V9.063h13.32a.781.781,0,0,1,0,1.562h-12l.771,6.436A1.563,1.563,0,0,0,5.7,18.438h9.653A1.561,1.561,0,0,0,16.91,17.05a.781.781,0,0,1,1.553.175A3.123,3.123,0,0,1,15.357,20H5.7a3.127,3.127,0,0,1-3.1-2.753l-.794-6.622H1.281A.781.781,0,0,1,.5,9.844V6.719a.781.781,0,0,1,.781-.781H4.052L8.18.319a.781.781,0,0,1,1.259.925L5.991,5.938h9.046L11.588,1.244A.781.781,0,0,1,12.848.319l4.128,5.619h2.742a.781.781,0,0,1,.781.781ZM9.718,12.969v3.125a.781.781,0,1,0,1.562,0V12.969a.781.781,0,0,0-1.562,0Zm3.125,0v3.125a.781.781,0,1,0,1.562,0V12.969a.781.781,0,0,0-1.562,0Zm-6.25,0v3.125a.781.781,0,1,0,1.562,0V12.969a.781.781,0,0,0-1.562,0Zm0,0" transform="translate(-0.499 0)"/></svg>