<svg xmlns="http://www.w3.org/2000/svg" width="19.999" height="19.999" viewBox="0 0 19.999 19.999"><defs><style>.a{fill:#e9e9f2;}</style></defs><path class="a" d="M-3626.433-1793.414a1.046,1.046,0,0,0-.568-.166,1.052,1.052,0,0,0-.568.166,2.609,2.609,0,0,1-1.411.413,2.6,2.6,0,0,1-.676-.089,2.618,2.618,0,0,1-1.646-1.324,1.05,1.05,0,0,0-.935-.57l-.049,0-.12,0a2.631,2.631,0,0,1-1.85-.766,2.615,2.615,0,0,1-.763-1.97,1.054,1.054,0,0,0-.568-.984,2.62,2.62,0,0,1-1.325-1.646,2.62,2.62,0,0,1,.325-2.088,1.054,1.054,0,0,0,0-1.136,2.619,2.619,0,0,1-.325-2.088,2.62,2.62,0,0,1,1.325-1.646,1.055,1.055,0,0,0,.568-.983,2.618,2.618,0,0,1,.763-1.971,2.635,2.635,0,0,1,1.85-.766l.12,0h.049a1.05,1.05,0,0,0,.935-.569,2.62,2.62,0,0,1,1.646-1.324,2.591,2.591,0,0,1,.676-.089,2.607,2.607,0,0,1,1.411.413,1.051,1.051,0,0,0,.568.165,1.045,1.045,0,0,0,.568-.165,2.613,2.613,0,0,1,1.412-.413,2.578,2.578,0,0,1,.676.089,2.625,2.625,0,0,1,1.647,1.324,1.049,1.049,0,0,0,.935.569h.048l.12,0a2.638,2.638,0,0,1,1.851.766,2.618,2.618,0,0,1,.762,1.971,1.057,1.057,0,0,0,.569.983,2.619,2.619,0,0,1,1.324,1.646,2.623,2.623,0,0,1-.325,2.089,1.055,1.055,0,0,0,0,1.135,2.622,2.622,0,0,1,.325,2.088,2.613,2.613,0,0,1-1.324,1.646.781.781,0,0,1-.359.088.78.78,0,0,1-.695-.423.784.784,0,0,1,.335-1.053,1.035,1.035,0,0,0,.533-.662,1.036,1.036,0,0,0-.131-.84,2.622,2.622,0,0,1,0-2.822,1.039,1.039,0,0,0,.131-.841,1.035,1.035,0,0,0-.533-.662,2.622,2.622,0,0,1-1.41-2.444,1.046,1.046,0,0,0-.308-.793,1.041,1.041,0,0,0-.742-.309l-.05,0-.121,0a2.639,2.639,0,0,1-2.323-1.414,1.041,1.041,0,0,0-.663-.533,1.049,1.049,0,0,0-.275-.036,1.05,1.05,0,0,0-.565.167,2.609,2.609,0,0,1-1.411.412,2.613,2.613,0,0,1-1.411-.412,1.04,1.04,0,0,0-.564-.167,1.059,1.059,0,0,0-.276.036,1.044,1.044,0,0,0-.663.533,2.606,2.606,0,0,1-2.323,1.414l-.12,0-.05,0a1.044,1.044,0,0,0-.743.309,1.042,1.042,0,0,0-.307.793,2.624,2.624,0,0,1-1.411,2.444,1.039,1.039,0,0,0-.533.662,1.044,1.044,0,0,0,.13.841,2.622,2.622,0,0,1,0,2.822,1.04,1.04,0,0,0-.13.84,1.039,1.039,0,0,0,.533.662,2.623,2.623,0,0,1,1.411,2.444,1.043,1.043,0,0,0,.307.793,1.047,1.047,0,0,0,.743.308h.05l.12,0a2.639,2.639,0,0,1,2.324,1.414,1.047,1.047,0,0,0,.663.533,1.059,1.059,0,0,0,.276.036,1.04,1.04,0,0,0,.564-.167,2.605,2.605,0,0,1,1.411-.413,2.6,2.6,0,0,1,1.411.413,1.05,1.05,0,0,0,.565.167,1.049,1.049,0,0,0,.275-.036,1.041,1.041,0,0,0,.663-.533,2.6,2.6,0,0,1,2.323-1.414l.121,0h.049a1.04,1.04,0,0,0,.573-.17.779.779,0,0,1,.426-.127.778.778,0,0,1,.654.354.78.78,0,0,1,.111.588.775.775,0,0,1-.339.494,2.6,2.6,0,0,1-1.423.424l-.125,0-.049,0a1.059,1.059,0,0,0-.934.57,2.625,2.625,0,0,1-1.647,1.324,2.616,2.616,0,0,1-.675.089A2.619,2.619,0,0,1-3626.433-1793.414Zm-1.317-6.337v-2.5h-2.5a.75.75,0,0,1-.75-.749.75.75,0,0,1,.75-.75h2.5v-2.5a.751.751,0,0,1,.75-.75.75.75,0,0,1,.75.75v2.5h2.5a.75.75,0,0,1,.75.75.75.75,0,0,1-.75.749h-2.5v2.5a.75.75,0,0,1-.75.75A.75.75,0,0,1-3627.75-1799.75Z" transform="translate(3637 1813)"/></svg>