<svg xmlns="http://www.w3.org/2000/svg" width="43.994" height="43.995" viewBox="0 0 43.994 43.995"><defs><style>.a{opacity:0.22;}.b{fill:#ff775b;}</style></defs><g class="a" transform="translate(-0.001 0)"><g transform="translate(0.001 0)"><path class="b" d="M209.4,21.194l3.583,3.73,14.484-13.916a21.868,21.868,0,0,0-9.7-4.954A33.619,33.619,0,0,1,209.4,21.194Z" transform="translate(-190.932 -5.52)"/><path class="b" d="M0,99.434A30.55,30.55,0,0,0,13.272,92.7L5.488,84.6A21.934,21.934,0,0,0,0,99.434Z" transform="translate(-0.001 -77.14)"/><path class="b" d="M23.1,210.289l-3.583-3.73a33.674,33.674,0,0,1-15.462,7.753A21.867,21.867,0,0,0,8.618,224.2Z" transform="translate(-3.698 -188.345)"/><path class="b" d="M240.958,349.178a30.441,30.441,0,0,0-7.3,13.161,21.941,21.941,0,0,0,15.256-4.878Z" transform="translate(-213.055 -318.388)"/><path class="b" d="M293.328,92.222l-14.484,13.916,3.414,3.553a33.656,33.656,0,0,1,15.592-7.776A21.868,21.868,0,0,0,293.328,92.222Z" transform="translate(-254.256 -84.09)"/><path class="b" d="M92.22,4.919l7.788,8.106A30.527,30.527,0,0,0,107.267.031,21.935,21.935,0,0,0,92.22,4.919Z" transform="translate(-84.088 0)"/><path class="b" d="M102.494,282.4l-3.414-3.553L84.6,292.762a21.867,21.867,0,0,0,9.5,4.906A33.571,33.571,0,0,1,102.494,282.4Z" transform="translate(-77.136 -254.258)"/><path class="b" d="M359.879,243.62a29.961,29.961,0,0,0-13.44,6.77l7.955,8.28A21.94,21.94,0,0,0,359.879,243.62Z" transform="translate(-315.89 -222.138)"/></g></g></svg>