<svg xmlns="http://www.w3.org/2000/svg" xmlns:xlink="http://www.w3.org/1999/xlink" width="22" height="22" viewBox="0 0 22 22"><defs><style>.a{fill:#fd765b;}.b{clip-path:url(#a);}</style><clipPath id="a"><rect class="a" width="22" height="22" transform="translate(18 298)"/></clipPath></defs><g class="b" transform="translate(-18 -298)"><path class="a" d="M19.658,17.508a3.418,3.418,0,0,1-1.039-1.414,16.367,16.367,0,0,1-1.083-6.467c0-.008,0-.016,0-.025A6.242,6.242,0,0,0,13.861,3.94V2.451A2.452,2.452,0,0,0,11.414,0h-.2A2.452,2.452,0,0,0,8.765,2.451V3.94A6.242,6.242,0,0,0,5.09,9.626a16.367,16.367,0,0,1-1.083,6.467,3.418,3.418,0,0,1-1.039,1.414.627.627,0,0,0-.344.713.656.656,0,0,0,.646.5H7.995a3.318,3.318,0,0,0,6.636,0h4.724a.656.656,0,0,0,.646-.5A.627.627,0,0,0,19.658,17.508Zm-9.6-15.057a1.16,1.16,0,0,1,1.158-1.16h.2a1.16,1.16,0,0,1,1.158,1.16V3.521a6.242,6.242,0,0,0-2.518,0V2.451Zm1.259,18.258a2.034,2.034,0,0,1-2.029-1.985h4.058A2.034,2.034,0,0,1,11.313,20.709Zm2.6-3.276H4.74a6.756,6.756,0,0,0,.338-.593,16.318,16.318,0,0,0,1.3-7.214,4.934,4.934,0,1,1,9.867,0q0,.012,0,.024a16.285,16.285,0,0,0,1.3,7.188,6.76,6.76,0,0,0,.338.593Z" transform="translate(17.687 298)"/></g></svg>