<svg xmlns="http://www.w3.org/2000/svg" width="48.983" height="42.86" viewBox="0 0 48.983 42.86"><defs><style>.a{fill:#3d3d85;opacity:0.08;}</style></defs><path class="a" d="M45.291,15.816,41.856,4.365A6.086,6.086,0,0,0,35.99,0h-23A6.086,6.086,0,0,0,7.127,4.365L3.692,15.816A6.127,6.127,0,0,0,0,21.43V33.676a3.062,3.062,0,0,0,3.061,3.061h0V39.8A3.062,3.062,0,0,0,6.123,42.86H9.185A3.062,3.062,0,0,0,12.246,39.8V36.738H36.738V39.8A3.062,3.062,0,0,0,39.8,42.86H42.86A3.061,3.061,0,0,0,45.922,39.8V36.738h0a3.062,3.062,0,0,0,3.061-3.061V21.43a6.127,6.127,0,0,0-3.692-5.614Zm-32.3-9.693h23l2.755,9.184H10.238l2.755-9.184Zm-.747,22.961a3.061,3.061,0,1,1,3.061-3.061A3.061,3.061,0,0,1,12.246,29.084Zm24.492,0A3.061,3.061,0,1,1,39.8,26.022,3.061,3.061,0,0,1,36.737,29.084Z" transform="translate(0)"/></svg>