<svg xmlns="http://www.w3.org/2000/svg" xmlns:xlink="http://www.w3.org/1999/xlink" width="22" height="22" viewBox="0 0 22 22"><defs><style>.a{fill:#ff775b;}.b{clip-path:url(#a);}</style><clipPath id="a"><rect class="a" width="22" height="22" transform="translate(18 219)"/></clipPath></defs><g class="b" transform="translate(-18 -219)"><g transform="translate(20.278 219)"><g transform="translate(0)"><path class="a" d="M20.54,18.142l-.982-12.38A1.547,1.547,0,0,0,18.022,4.34H16.081V4.253a4.253,4.253,0,1,0-8.505,0V4.34H5.635A1.547,1.547,0,0,0,4.1,5.761L3.117,18.144A3.582,3.582,0,0,0,6.689,22H16.968a3.582,3.582,0,0,0,3.572-3.858ZM8.865,4.253a2.964,2.964,0,0,1,5.928,0V4.34H8.865Zm9.786,15.724a2.27,2.27,0,0,1-1.683.735H6.689A2.293,2.293,0,0,1,4.4,18.244L5.385,5.861a.253.253,0,0,1,.251-.232H7.576V7.215a.644.644,0,1,0,1.289,0V5.628h5.928V7.215a.644.644,0,1,0,1.289,0V5.628h1.941a.253.253,0,0,1,.251.234l.982,12.38A2.27,2.27,0,0,1,18.651,19.976Z" transform="translate(-3.107)"/></g><g transform="translate(5.63 10.738)"><path class="a" d="M16.779,14.831a.644.644,0,0,0-.911,0L12.99,17.708,11.884,16.6a.644.644,0,0,0-.911.911l1.562,1.562a.644.644,0,0,0,.911,0l3.333-3.333A.644.644,0,0,0,16.779,14.831Z" transform="translate(-10.784 -14.642)"/></g></g></g></svg>