<svg xmlns="http://www.w3.org/2000/svg" width="18.476" height="15.369" viewBox="0 0 18.476 15.369"><defs><style>.a{opacity:0.9;}.b{fill:#fff;}.c{fill:none;stroke:#fff;}</style></defs><g class="a" transform="translate(-280.044 -654.998)"><path class="b" d="M7.353,29.118C3.292,29.118,0,32,0,35.552a5.858,5.858,0,0,0,1.259,3.6L0,41.987H7.353c4.061,0,7.353-2.881,7.353-6.434S11.415,29.118,7.353,29.118Z" transform="translate(283.813 628.38)"/><g class="a" transform="translate(-3 -2)"><path class="c" d="M7.353,29.118C3.292,29.118,0,32,0,35.552a5.858,5.858,0,0,0,1.259,3.6L0,41.987H7.353c4.061,0,7.353-2.881,7.353-6.434S11.415,29.118,7.353,29.118Z" transform="translate(283.813 628.38)"/></g></g></svg>