<svg width="24" height="24" xmlns="http://www.w3.org/2000/svg">

 <g>
  <title>background</title>
  <rect fill="none" id="canvas_background" height="402" width="582" y="-1" x="-1"/>
 </g>
 <g>
  <title>Layer 1</title>
  <g id="svg_6">
   <path stroke="#000" d="m2.680046,2.491621c0,0 0.122266,0 0.300107,0c0.266761,0 0.544638,0 0.800284,0l0.155611,0l0.033345,0l0.02223,0" id="svg_3" fill-opacity="null" stroke-opacity="null" stroke-width="0.5" fill="none"/>
   <path stroke="#000" d="m2.761653,2.411752c0,0 0,0.122264 0,0.300104c0,0.266761 0,0.544642 0,0.800289l0,0.155607l0,0.033349l0,0.022229" id="svg_4" fill-opacity="null" stroke-opacity="null" stroke-width="0.5" fill="none"/>
  </g>
  <g transform="rotate(90 21.02045440673828,3.038878440856936) " id="svg_9">
   <path stroke="#000" d="m20.364668,2.462959c0,0 0.12226,0 0.3001,0c0.26677,0 0.54464,0 0.80029,0l0.15561,0l0.03334,0l0.02223,0" id="svg_7" fill-opacity="null" stroke-opacity="null" stroke-width="0.5" fill="none"/>
   <path stroke="#000" d="m20.446268,2.383089c0,0 0,0.12227 0,0.30011c0,0.26676 0,0.54464 0,0.80029l0,0.1556l0,0.03335l0,0.02223" id="svg_8" fill-opacity="null" stroke-opacity="null" stroke-width="0.5" fill="none"/>
  </g>
  <g transform="rotate(-180 21.02045440673828,21.105648040771484) " id="svg_12">
   <path stroke="#000" d="m20.36467,20.529729c0,0 0.12226,0 0.3001,0c0.26677,0 0.54464,0 0.80029,0l0.15561,0l0.03334,0l0.02223,0" id="svg_10" fill-opacity="null" stroke-opacity="null" stroke-width="0.5" fill="none"/>
   <path stroke="#000" d="m20.44627,20.449859c0,0 0,0.12227 0,0.30011c0,0.26676 0,0.54464 0,0.80029l0,0.1556l0,0.03335l0,0.02223" id="svg_11" fill-opacity="null" stroke-opacity="null" stroke-width="0.5" fill="none"/>
  </g>
  <g transform="rotate(-90 3.3310723304748575,21.10564994812012) " id="svg_15">
   <path stroke="#000" d="m2.675288,20.52973c0,0 0.12226,0 0.3001,0c0.26677,0 0.54464,0 0.80029,0l0.15561,0l0.03334,0l0.02223,0" id="svg_13" fill-opacity="null" stroke-opacity="null" stroke-width="0.5" fill="none"/>
   <path stroke="#000" d="m2.756888,20.44986c0,0 0,0.12227 0,0.30011c0,0.26676 0,0.54464 0,0.80029l0,0.1556l0,0.03335l0,0.02223" id="svg_14" fill-opacity="null" stroke-opacity="null" stroke-width="0.5" fill="none"/>
  </g>
 </g>
</svg>