<svg xmlns="http://www.w3.org/2000/svg" xmlns:xlink="http://www.w3.org/1999/xlink" width="176.155" height="194.301" viewBox="0 0 176.155 194.301"><defs><style>.a,.b{fill:#fff;}.a{opacity:0.65;}.c{filter:url(#a);}</style><filter id="a" x="0" y="0" width="176.155" height="194.301" filterUnits="userSpaceOnUse"><feOffset dy="30" input="SourceAlpha"/><feGaussianBlur stdDeviation="25" result="b"/><feFlood flood-color="#ff775b" flood-opacity="0.871"/><feComposite operator="in" in2="b"/><feComposite in="SourceGraphic"/></filter></defs><g transform="translate(77 33.725)"><g transform="translate(-2)"><path class="a" d="M72.608,10.941a5.471,5.471,0,1,0-5.47-5.471A5.476,5.476,0,0,0,72.608,10.941Z" transform="translate(-59.532 -3)"/><g class="c" transform="matrix(1, 0, 0, 1, -75, -33.72)"><path class="b" d="M35.959,101.656,31.817,87.23a2.758,2.758,0,0,0-2.724-2.287H16.731a2.758,2.758,0,0,0-2.724,2.287L9.863,101.656a.7.7,0,0,0,0,.406,2.469,2.469,0,0,0-.031.386,2.771,2.771,0,0,0,5.486.559l1.789-6.642L14.152,110.7a2.774,2.774,0,0,0,2.58,3.8h.3V126.47a2.774,2.774,0,0,0,5.548,0V114.5h.663V126.47a2.774,2.774,0,0,0,5.548,0V114.5h.3a2.775,2.775,0,0,0,2.578-3.8L28.716,96.364l1.774,6.585a2.772,2.772,0,0,0,5.5-.5,2.532,2.532,0,0,0-.031-.387A.716.716,0,0,0,35.959,101.656Z" transform="translate(65.17 -39.94)"/></g></g></g></svg>