<svg xmlns="http://www.w3.org/2000/svg" width="21.674" height="20.937" viewBox="0 0 21.674 20.937"><defs><style>.a{fill:#ff836a;stroke:#fe836b;}</style></defs><g transform="translate(0.204 -0.718)"><g transform="translate(0.39 1.218)"><path class="a" d="M365.151,331.925l-.3.008h0Z" transform="translate(-361.11 -321.479)"/><path class="a" d="M363.738,336.928a7.182,7.182,0,0,1-2.165-4.575l-1.8.2-.024,0h-.024c-.141,0-.325.012-.508.034l-.117.016A10,10,0,0,0,375.8,339l-1.76-1.76a7.528,7.528,0,0,1-10.3-.312Z" transform="translate(-358.412 -321.68)"/><path class="a" d="M370.9,312.254a9.941,9.941,0,0,0-7.076,2.931q-.334.333-.631.693l1.772,1.772a7.565,7.565,0,0,1,.617-.707,7.515,7.515,0,0,1,12.832,5.12q1.235-.2,2.474-.4a10,10,0,0,0-9.986-9.408Z" transform="translate(-360.329 -312.254)"/><path class="a" d="M358.838,315.64l-1.035,7,6.983-1.053-2.351-2.351-1.772-1.772Z" transform="translate(-357.803 -313.842)"/><path class="a" d="M385.129,338.534l1.76,1.76,1.8,1.8,1.053-6.983-7,1.035Z" transform="translate(-369.499 -322.974)"/></g></g></svg>