<svg xmlns="http://www.w3.org/2000/svg" width="20.223" height="19.614" viewBox="0 0 20.223 19.614"><defs><style>.a{fill:none;}.a,.b{stroke:#ff775b;}.b{fill:#ff775b;}</style></defs><g transform="translate(-2.9 -1.613)"><g transform="translate(3.431 2.228)"><path class="a" d="M14.387,324.965,9.33,331.147a.446.446,0,0,0,.628.628l6.184-5.057c-.316-.281-.62-.567-.9-.851S14.658,325.268,14.387,324.965Z" transform="translate(-9.23 -313.378)"/><path class="b" d="M115.424,11.351c-1.729-1.73-3.683-2.579-4.365-1.9-.035.035-3.6,4.9-5.394,7.345a6,6,0,0,0-2.9-1.324.789.789,0,0,0-.582.2c-.746.745.647,3.345,3.11,5.809C107.3,23.5,109.41,24.8,110.518,24.8a.792.792,0,0,0,.582-.2c.508-.509.021-1.881-1.122-3.485,2.441-1.789,7.308-5.359,7.343-5.394C118,15.035,117.153,13.081,115.424,11.351Z" transform="translate(-98.375 -9.218)"/></g></g></svg>