<svg xmlns="http://www.w3.org/2000/svg" width="26.577" height="26.577" viewBox="0 0 26.577 26.577"><defs><style>.a{fill:#fe765b;}</style></defs><circle class="a" cx="5.5" cy="5.5" r="5.5" transform="translate(7.789 7.789)"/><path class="a" d="M26.023,12.181H23.19A9.98,9.98,0,0,0,14.4,3.387V.554A.553.553,0,0,0,13.842,0H12.735a.553.553,0,0,0-.554.554V3.387a9.98,9.98,0,0,0-8.794,8.794H.554A.553.553,0,0,0,0,12.735v1.107a.553.553,0,0,0,.554.554H3.387a9.98,9.98,0,0,0,8.794,8.794v2.834a.553.553,0,0,0,.554.554h1.107a.553.553,0,0,0,.554-.554V23.19A9.98,9.98,0,0,0,23.19,14.4h2.834a.553.553,0,0,0,.554-.554V12.735A.553.553,0,0,0,26.023,12.181ZM13.289,21.04a7.752,7.752,0,1,1,7.752-7.752A7.761,7.761,0,0,1,13.289,21.04Z"/></svg>