<svg xmlns="http://www.w3.org/2000/svg" width="19.504" height="19.504" viewBox="0 0 19.504 19.504"><defs><style>.a{opacity:0.9;}.b{fill:#fff;}</style></defs><g class="a"><circle class="b" cx="3.5" cy="3.5" r="3.5" transform="translate(6.235 6.235)"/><path class="b" d="M19.1,8.939h-2.08a7.324,7.324,0,0,0-6.453-6.453V.406A.406.406,0,0,0,10.158,0H9.346a.406.406,0,0,0-.406.406v2.08A7.324,7.324,0,0,0,2.486,8.939H.406A.406.406,0,0,0,0,9.346v.813a.406.406,0,0,0,.406.406h2.08a7.324,7.324,0,0,0,6.453,6.453V19.1a.406.406,0,0,0,.406.406h.813a.406.406,0,0,0,.406-.406v-2.08a7.324,7.324,0,0,0,6.453-6.453H19.1a.406.406,0,0,0,.406-.406V9.346A.406.406,0,0,0,19.1,8.939Zm-9.346,6.5a5.689,5.689,0,1,1,5.689-5.689A5.7,5.7,0,0,1,9.752,15.441Z"/></g></svg>