<svg xmlns="http://www.w3.org/2000/svg" width="20.13" height="23.253" viewBox="0 0 20.13 23.253"><defs><style>.a{fill:#ff775b;}.b{fill:#f8f6ff;stroke:#f8f6ff;stroke-width:0.3px;}</style></defs><g transform="translate(-2.721 1.316)"><g transform="translate(2.721 -1.316)"><g transform="translate(0)"><g transform="translate(0)"><g transform="translate(0)"><path class="a" d="M2.291,4.208H17.886L19.227,19.7l-2.571,1.251-15.2-.327L.446,18.015Z" transform="translate(0.115 1.68)"/><path class="a" d="M23.225,19.176,22.091,6.09a1.73,1.73,0,0,0-1.772-1.5H18.079V4.495A4.72,4.72,0,0,0,13.172,0,4.72,4.72,0,0,0,8.264,4.495v.092H6.025a1.73,1.73,0,0,0-1.772,1.5L3.119,19.177A3.608,3.608,0,0,0,4.208,22.04,4.331,4.331,0,0,0,7.24,23.253H19.1a4.331,4.331,0,0,0,3.033-1.213A3.609,3.609,0,0,0,23.225,19.176ZM9.751,4.495a3.29,3.29,0,0,1,3.42-3.133,3.29,3.29,0,0,1,3.42,3.133v.092H9.751ZM21.045,21.114a2.736,2.736,0,0,1-1.942.777H7.241A2.736,2.736,0,0,1,5.3,21.114a2.279,2.279,0,0,1-.7-1.831L5.735,6.195a.282.282,0,0,1,.289-.246H8.264V7.626a.746.746,0,0,0,1.487,0V5.949h6.841V7.626a.746.746,0,0,0,1.487,0V5.949h2.239a.283.283,0,0,1,.29.247l1.134,13.085A2.28,2.28,0,0,1,21.045,21.114Z" transform="translate(-3.107)"/></g><g transform="translate(6.497 11.349)"><path class="b" d="M17.7,14.842a.793.793,0,0,0-1.051,0l-3.32,3.041-1.277-1.169a.793.793,0,0,0-1.052,0,.641.641,0,0,0,0,.963l1.8,1.651a.792.792,0,0,0,1.051,0L17.7,15.8A.641.641,0,0,0,17.7,14.842Z" transform="translate(-10.784 -14.642)"/></g></g></g></g></g></svg>