<svg xmlns="http://www.w3.org/2000/svg" xmlns:xlink="http://www.w3.org/1999/xlink" width="308.435" height="400.339" viewBox="0 0 308.435 400.339"><defs><style>.a{fill:#ee3c3c;opacity:0.17;}.a,.c,.e,.n{mix-blend-mode:multiply;}.a,.c,.e,.n,.q,.s{isolation:isolate;}.b{fill:url(#a);}.c{fill:#ef3d3d;}.c,.e{opacity:0.3;}.d{fill:#f8f6ff;}.e{fill:#0071bc;}.f{fill:#fbad8b;}.g{fill:#ffd13a;}.h{fill:#fce4a2;}.i{opacity:0.84;}.j{opacity:0.9;}.k,.l{fill:#fe8f8f;}.k{opacity:0.28;}.m{fill:url(#b);}.n{fill:url(#c);}.o{fill:#ffd8a4;}.p{fill:url(#e);}.q{opacity:0.65;}.r{fill:url(#f);}.s{opacity:0.61;}.t{fill:#fff;}.u,.v{fill:none;stroke:#f14848;stroke-linecap:round;stroke-width:2px;}.u{stroke-linejoin:round;}.w{filter:url(#i);}.x{filter:url(#g);}</style><linearGradient id="a" x1="0.5" x2="0.039" y2="1.714" gradientUnits="objectBoundingBox"><stop offset="0" stop-color="#ee3737"/><stop offset="1" stop-color="#ff9292"/></linearGradient><linearGradient id="b" y1="0.5" x2="1" y2="0.5" gradientUnits="objectBoundingBox"><stop offset="0" stop-color="#fff"/><stop offset="1" stop-color="#b3e3f8"/></linearGradient><linearGradient id="c" x1="0.5" y1="-0.006" x2="0.5" y2="1.042" xlink:href="#b"/><linearGradient id="e" y1="-0.01" x2="0.5" y2="0.762" xlink:href="#a"/><linearGradient id="f" y1="-0.015" x2="0.5" y2="1.019" xlink:href="#a"/><filter id="g" x="76.018" y="68.895" width="227.152" height="291.166" filterUnits="userSpaceOnUse"><feOffset dy="30" input="SourceAlpha"/><feGaussianBlur stdDeviation="25" result="h"/><feFlood flood-color="#f11" flood-opacity="0.051"/><feComposite operator="in" in2="h"/><feComposite in="SourceGraphic"/></filter><filter id="i" x="0" y="139.339" width="261" height="261" filterUnits="userSpaceOnUse"><feOffset dy="50" input="SourceAlpha"/><feGaussianBlur stdDeviation="35" result="j"/><feFlood flood-opacity="0.18"/><feComposite operator="in" in2="j"/><feComposite in="SourceGraphic"/></filter></defs><g transform="translate(-25 -186.661)"><g transform="translate(220.723 230.494)"><rect class="a" width="65.248" height="38.525" rx="3.034" transform="translate(2.465 1.167)"/><path class="b" d="M3.242,0H62.005a3.242,3.242,0,0,1,3.242,3.242v32.04a3.243,3.243,0,0,1-3.243,3.243H3.242A3.242,3.242,0,0,1,0,35.283V3.242A3.242,3.242,0,0,1,3.242,0Z" transform="translate(0 0)"/><path class="c" d="M12.714,5.059A9.212,9.212,0,0,1,3.5,14.27,9.125,9.125,0,0,1,0,13.577V3.567A3.566,3.566,0,0,1,3.569,0H11.2A9.158,9.158,0,0,1,12.714,5.059Z" transform="translate(0 0)"/><g transform="translate(43.995 25.91)"><path class="d" d="M7.63,3.816A3.815,3.815,0,1,1,3.816,0,3.815,3.815,0,0,1,7.63,3.816Z"/><path class="d" d="M7.63,3.816A3.815,3.815,0,1,1,3.816,0,3.815,3.815,0,0,1,7.63,3.816Z" transform="translate(8.478)"/></g><rect class="e" width="20.819" height="3.648" transform="translate(5.143 26.827)"/><rect class="f" width="12.355" height="1.459" transform="translate(5.143 32.081)"/><g transform="translate(5.145 7.394)"><rect class="g" width="10.701" height="8.075" rx="1.241"/><rect class="h" width="2.518" height="0.323" transform="translate(8.184 5.304)"/><path class="h" d="M4.748,0V8.075H4.421V5.627H0V5.3H4.421V2.771H0V2.448H4.421V0Z"/></g><rect class="f" width="6.032" height="6.032" transform="translate(39.401 5.156)"/><rect class="f" width="13.717" height="6.032" transform="translate(46.386 5.156)"/><rect class="f" width="54.961" height="3.01" transform="translate(5.143 17.765)"/><rect class="f" width="24.142" height="1.322" transform="translate(5.143 22.458)"/></g><g class="i" transform="translate(261.393 329.994)"><g class="j" transform="translate(0 0)"><path class="k" d="M8.252,0A8.312,8.312,0,0,0,1.413,12.947L0,16.6H8.252a8.3,8.3,0,0,0,0-16.6Z" transform="matrix(0.438, -0.899, 0.899, 0.438, 0, 63.567)"/><path class="l" d="M10.728,0A10.805,10.805,0,0,0,1.837,16.832L0,21.584H10.728A10.792,10.792,0,0,0,10.728,0Z" transform="matrix(1, -0.017, 0.017, 1, 4.777, 0.374)"/></g></g><g transform="translate(129.659 230.973)"><path class="m" d="M104.566,182.946v10.263h47.34V159.75h-47.34Z" transform="translate(-86.556 -94.603)"/><path class="n" d="M104.566,182.946v10.263h47.34V159.75h-47.34Z" transform="translate(-86.556 -94.603)"/><path class="n" d="M104.566,182.946v10.263h47.34V159.75h-47.34Z" transform="translate(-86.556 -94.603)"/><path class="o" d="M104.566,182.946v10.263h47.34V159.75h-47.34Z" transform="translate(-86.556 -94.603)"/><path class="p" d="M160.07,124.131v81.386l-6.087,62.628h-1.174V205.517c0-.241-.006-.483-.024-.721a10.977,10.977,0,0,0-.188-1.487,11.425,11.425,0,0,0-1.041-3.087,10.959,10.959,0,0,0-.894-1.489,11.8,11.8,0,0,0-21.452,6.784,17.511,17.511,0,0,1-.344,3.444,14.978,14.978,0,0,1-.377,1.487,15.741,15.741,0,0,1-.834,2.222,14.309,14.309,0,0,1-.768,1.489,17.245,17.245,0,0,1-14.923,8.6,17.245,17.245,0,0,1-17.245-17.245V124.131Z" transform="translate(-94.719 -124.131)"/><g class="q" transform="translate(7.722 13.287)"><rect class="o" width="53.249" height="1.487" transform="translate(0.001)"/><rect class="o" width="53.249" height="1.487" transform="translate(0.001 32.772)"/><path class="o" d="M125.366,170.512a14.981,14.981,0,0,1-.377,1.487H98.941v-1.487Z" transform="translate(-98.941 -98.969)"/><rect class="o" width="1.21" height="1.489" transform="translate(52.04 71.54)"/><path class="o" d="M124.155,172.54a14.312,14.312,0,0,1-.768,1.489H98.941V172.54Z" transform="translate(-98.941 -97.288)"/><rect class="o" width="1.21" height="1.489" transform="translate(52.04 75.249)"/><g transform="translate(0.001 5.78)"><rect class="o" width="10.69" height="1.487" transform="translate(42.559)"/><rect class="o" width="21.784" height="1.487"/></g><g transform="translate(0.001 38.422)"><rect class="o" width="10.69" height="1.487" transform="translate(42.559)"/><rect class="o" width="21.784" height="1.487"/></g><g transform="translate(0.001 43)"><rect class="o" width="10.69" height="1.487" transform="translate(42.559)"/><rect class="o" width="21.784" height="1.487"/></g><g transform="translate(0.001 47.579)"><rect class="o" width="10.69" height="1.487" transform="translate(42.559)"/><rect class="o" width="21.784" height="1.487"/></g><g transform="translate(0.001 52.157)"><rect class="o" width="10.69" height="1.487" transform="translate(42.559)"/><rect class="o" width="21.784" height="1.487"/></g><g transform="translate(0.001 56.734)"><path class="o" d="M132.512,162.415V163.9h-6.553a11.659,11.659,0,0,0-3.279-1.487Z" transform="translate(-79.263 -162.415)"/><rect class="o" width="21.784" height="1.487" transform="translate(0 0.001)"/></g><g transform="translate(0.001 61.313)"><path class="o" d="M129.577,164.919v1.489h-2.462a10.677,10.677,0,0,0-.9-1.489Z" transform="translate(-76.329 -164.918)"/><rect class="o" width="21.784" height="1.487"/></g><g transform="translate(0.001 65.888)"><path class="o" d="M128.7,167.42v1.489h-1.235a10.715,10.715,0,0,0-.187-1.489Z" transform="translate(-75.451 -167.42)"/><rect class="o" width="21.784" height="1.487" transform="translate(0 0.003)"/></g><g transform="translate(0.001 10.652)"><rect class="o" width="10.69" height="1.487" transform="translate(42.559)"/><rect class="o" width="21.784" height="1.487"/></g><g transform="translate(0.001 15.524)"><rect class="o" width="10.69" height="1.487" transform="translate(42.559)"/><rect class="o" width="21.784" height="1.487"/></g><g transform="translate(0.001 20.396)"><rect class="o" width="10.69" height="1.487" transform="translate(42.559)"/><rect class="o" width="21.784" height="1.487"/></g><g transform="translate(0.001 25.268)"><rect class="o" width="10.69" height="1.487" transform="translate(42.559)"/><rect class="o" width="21.784" height="1.487"/></g></g><g class="x" transform="matrix(1, 0, 0, 1, -104.66, -44.31)"><path class="r" d="M131.867,173.977V303.342h65.351V173.977a11.8,11.8,0,0,0-11.8-11.8H120.066A11.8,11.8,0,0,1,131.867,173.977Z" transform="translate(30.95 -48.28)"/></g><g class="s" transform="translate(64.139 78.38)"><rect class="t" width="53.249" height="1.487" transform="translate(0 26.992)"/><rect class="t" width="53.249" height="1.487" transform="translate(0 62.132)"/><rect class="t" width="53.249" height="1.487" transform="translate(0 67.321)"/><rect class="t" width="53.249" height="1.487" transform="translate(0 72.511)"/><rect class="t" width="53.249" height="1.487" transform="translate(0 77.7)"/><rect class="t" width="53.249" height="1.487" transform="translate(0 82.89)"/><rect class="t" width="53.249" height="1.487" transform="translate(0 88.079)"/><rect class="t" width="53.249" height="1.487" transform="translate(0 93.268)"/><rect class="t" width="53.249" height="1.487" transform="translate(0 106.178)"/><rect class="t" width="53.249" height="1.487" transform="translate(0 111.344)"/><rect class="t" width="53.249" height="1.487" transform="translate(0 116.509)"/><rect class="t" width="53.249" height="1.487" transform="translate(0 122.157)"/><rect class="t" width="10.69" height="1.487" transform="translate(42.559)"/><rect class="t" width="21.784" height="1.487"/><g transform="translate(0 32.642)"><rect class="t" width="10.69" height="1.487" transform="translate(42.559)"/><rect class="t" width="21.784" height="1.487"/></g><g transform="translate(0 37.22)"><rect class="t" width="10.69" height="1.487" transform="translate(42.559)"/><rect class="t" width="21.784" height="1.487"/></g><g transform="translate(0 41.798)"><rect class="t" width="10.69" height="1.487" transform="translate(42.559)"/><rect class="t" width="21.784" height="1.487"/></g><g transform="translate(0 46.377)"><rect class="t" width="10.69" height="1.487" transform="translate(42.559)"/><rect class="t" width="21.784" height="1.487"/></g><g transform="translate(0 50.955)"><rect class="t" width="10.69" height="1.487" transform="translate(42.559)"/><rect class="t" width="21.784" height="1.487"/></g><g transform="translate(0 55.533)"><rect class="t" width="10.69" height="1.487" transform="translate(42.559)"/><rect class="t" width="21.784" height="1.487"/></g><g transform="translate(0 4.872)"><rect class="t" width="10.69" height="1.487" transform="translate(42.559)"/><rect class="t" width="21.784" height="1.487"/></g><g transform="translate(0 9.744)"><rect class="t" width="10.69" height="1.487" transform="translate(42.559)"/><rect class="t" width="21.784" height="1.487"/></g><g transform="translate(0 14.616)"><rect class="t" width="10.69" height="1.487" transform="translate(42.559)"/><rect class="t" width="21.784" height="1.487"/></g><g transform="translate(0 19.489)"><rect class="t" width="10.69" height="1.487" transform="translate(42.559)"/><rect class="t" width="21.784" height="1.487"/></g></g></g><g transform="translate(-115 -7)"><g class="w" transform="matrix(1, 0, 0, 1, 140, 193.66)"><rect class="d" width="51" height="51" rx="19" transform="translate(105 194.34)"/></g><g transform="translate(-3 -1)"><path class="u" d="M259.677,410.036l4.045,3.947L275.8,401.91" transform="translate(5.076 6.091)"/><path class="v" d="M275.265,416.373l8.574-8.574" transform="translate(0 3.701)"/></g></g></g></svg>