<svg xmlns="http://www.w3.org/2000/svg" width="15.252" height="15.253" viewBox="0 0 15.252 15.253"><defs><style>.a{fill:#fff;}</style></defs><g transform="translate(-63 -685)"><path class="a" d="M13.331,324.965,9.31,329.881a.355.355,0,0,0,.5.5l4.917-4.022c-.251-.224-.493-.451-.718-.677S13.546,325.206,13.331,324.965Z" transform="translate(53.77 369.793)"/><path class="a" d="M112.67,10.914c-1.375-1.375-2.928-2.05-3.471-1.51-.028.028-2.867,3.9-4.289,5.84a4.773,4.773,0,0,0-2.307-1.053.627.627,0,0,0-.463.16c-.593.592.514,2.66,2.473,4.619,1.6,1.6,3.275,2.634,4.156,2.634a.63.63,0,0,0,.463-.16c.4-.4.017-1.5-.892-2.771,1.941-1.423,5.811-4.261,5.839-4.289C114.721,13.844,114.045,12.29,112.67,10.914Z" transform="translate(-36.114 675.782)"/></g></svg>