<svg xmlns="http://www.w3.org/2000/svg" xmlns:xlink="http://www.w3.org/1999/xlink" width="335" height="330" viewBox="0 0 335 330"><defs><style>.a{opacity:0.2;}.b{fill:url(#a);}.c{fill:url(#b);}.d{fill:#ffd8a4;}.e{fill:#f7f5fe;}.f{fill:none;stroke:#f87070;stroke-linecap:round;stroke-width:2px;stroke-dasharray:5 10;}.g{fill:#f04646;}.h{filter:url(#h);}</style><linearGradient id="a" x1="0.5" y1="1.039" x2="0.5" y2="-0.033" gradientUnits="objectBoundingBox"><stop offset="0" stop-color="#ee3737"/><stop offset="1" stop-color="#ff9292"/></linearGradient><linearGradient id="b" y1="0" y2="1" xlink:href="#a"/><filter id="h" x="0" y="0" width="261" height="261" filterUnits="userSpaceOnUse"><feOffset dy="50" input="SourceAlpha"/><feGaussianBlur stdDeviation="35" result="i"/><feFlood flood-opacity="0.051"/><feComposite operator="in" in2="i"/><feComposite in="SourceGraphic"/></filter></defs><g transform="translate(10 -170)"><ellipse class="a" cx="85.5" cy="15" rx="85.5" ry="15" transform="translate(106 422)"/><g transform="translate(108.219 317.367)"><g transform="translate(0 0)"><rect class="b" width="144.332" height="76.281" transform="translate(7.053 43.156)"/><path class="c" d="M0,0H31.688a0,0,0,0,1,0,0V23.675a8.918,8.918,0,0,1-8.918,8.918H8.918A8.918,8.918,0,0,1,0,23.675V0A0,0,0,0,1,0,0Z" transform="translate(0 26.859)"/><path class="c" d="M576.775,174.044,558.215,200.9H589.9l11.136-26.859Z" transform="translate(-558.215 -174.044)"/><path class="d" d="M591.9,221.756h0a15.844,15.844,0,0,1-15.845-15.843v-16.75H607.74v16.75A15.844,15.844,0,0,1,591.9,221.756Z" transform="translate(-544.364 -162.303)"/><path class="d" d="M587.187,174.044,576.051,200.9h31.688l3.712-26.859Z" transform="translate(-544.364 -174.044)"/><path class="c" d="M609.732,221.756h0a15.844,15.844,0,0,1-15.844-15.843v-16.75h31.687v16.75A15.844,15.844,0,0,1,609.732,221.756Z" transform="translate(-530.512 -162.303)"/><path class="c" d="M597.6,174.044,593.888,200.9h31.688l-3.712-26.859Z" transform="translate(-530.513 -174.044)"/><path class="d" d="M627.567,221.756h0a15.844,15.844,0,0,1-15.844-15.843v-16.75h31.689v16.75A15.845,15.845,0,0,1,627.567,221.756Z" transform="translate(-516.661 -162.303)"/><path class="d" d="M609.635,174.044l3.712,26.859h31.688L633.9,174.044Z" transform="translate(-518.284 -174.044)"/><path class="c" d="M645.4,221.756h0a15.844,15.844,0,0,1-15.844-15.843v-16.75h31.687v16.75A15.844,15.844,0,0,1,645.4,221.756Z" transform="translate(-502.81 -162.303)"/><path class="c" d="M623.292,174.044,634.429,200.9h31.688l-18.56-26.859Z" transform="translate(-507.678 -174.044)"/><path class="e" d="M624.275,254.108V222.916a13.665,13.665,0,0,0-13.624-13.624h-2.63A13.664,13.664,0,0,0,594.4,222.916v31.191Z" transform="translate(-530.117 -134.671)"/><g transform="translate(17.956 80.957)"><rect class="e" width="35.913" height="20.672" rx="5" transform="translate(86.613)"/><rect class="e" width="35.913" height="20.672" rx="5"/></g></g></g><path class="f" d="M-1083.35-5278.113s56.59-49.074,90.629-48.223-27.657,28.508-40.421,45.1,108.925-39.57,119.562-10.637-56.164,26.38-55.739,47.655" transform="translate(1216.707 5545.539)"/><g class="h" transform="matrix(1, 0, 0, 1, -10, 170)"><path class="e" d="M19,0H32A19,19,0,0,1,51,19V32A19,19,0,0,1,32,51H19A19,19,0,0,1,0,32V19A19,19,0,0,1,19,0Z" transform="translate(105 55)"/></g><g transform="translate(110.192 235.843)"><path class="g" d="M17.618,8.809c0,4.866-8.809,20.4-8.809,20.4S0,13.674,0,8.809a8.809,8.809,0,0,1,17.618,0Z"/><path class="e" d="M12.039,6.02A6.02,6.02,0,1,1,6.02,0,6.019,6.019,0,0,1,12.039,6.02Z" transform="translate(2.789 2.565)"/></g></g></svg>