<svg xmlns="http://www.w3.org/2000/svg" xmlns:xlink="http://www.w3.org/1999/xlink" width="176.153" height="194.301" viewBox="0 0 176.153 194.301"><defs><style>.a,.b{fill:#fff;}.a{opacity:0.5;}.c{filter:url(#a);}</style><filter id="a" x="0" y="0" width="176.153" height="194.301" filterUnits="userSpaceOnUse"><feOffset dy="30" input="SourceAlpha"/><feGaussianBlur stdDeviation="25" result="b"/><feFlood flood-color="#ff775b"/><feComposite operator="in" in2="b"/><feComposite in="SourceGraphic"/></filter></defs><g transform="translate(75 33.725)"><path class="a" d="M274.59,10.941a5.471,5.471,0,1,0-5.471-5.471A5.476,5.476,0,0,0,274.59,10.941Z" transform="translate(-261.513 -4)"/><g class="c" transform="matrix(1, 0, 0, 1, -75, -33.72)"><path class="b" d="M237.94,102.061a.7.7,0,0,0,.019-.34l-2.723-14.446a2.759,2.759,0,0,0-2.732-2.332H217.286a2.753,2.753,0,0,0-2.728,2.314l-2.727,14.464a.706.706,0,0,0,.018.34,2.433,2.433,0,0,0-.031.387,2.772,2.772,0,0,0,5.5.486l1.718-10.742-.022,34.279a2.774,2.774,0,0,0,5.548,0V109.5h.662V126.47a2.774,2.774,0,0,0,5.549,0l-.022-34.278,1.721,10.758a2.772,2.772,0,0,0,5.5-.5A2.429,2.429,0,0,0,237.94,102.061Z" transform="translate(-136.82 -39.94)"/></g></g></svg>