<svg xmlns="http://www.w3.org/2000/svg" xmlns:xlink="http://www.w3.org/1999/xlink" width="339" height="295" viewBox="0 0 339 295"><defs><style>.a{opacity:0.15;}.b{fill:#cc1f1f;}.b,.c,.d,.f,.g{fill-rule:evenodd;}.c,.i{fill:url(#a);}.d{fill:#290f26;}.e,.h,.o{fill:none;}.e,.h{stroke:#290f26;}.e{stroke-width:3px;}.f{fill:#d5a681;}.g{fill:#ffd8a4;}.h{stroke-width:2px;}.j{opacity:0.1;}.k{fill:#ff3e16;}.l{fill:#f8f6ff;}.m{opacity:0.9;}.n{fill:#f14848;}.o{stroke:#ffd6d6;stroke-linecap:round;stroke-width:2.5px;}.p{filter:url(#c);}</style><linearGradient id="a" x1="0.5" x2="0.5" y2="1" gradientUnits="objectBoundingBox"><stop offset="0" stop-color="#ee3737"/><stop offset="1" stop-color="#ff9292"/></linearGradient><filter id="c" x="78" y="0" width="261" height="261" filterUnits="userSpaceOnUse"><feOffset dy="50" input="SourceAlpha"/><feGaussianBlur stdDeviation="35" result="d"/><feFlood flood-opacity="0.18"/><feComposite operator="in" in2="d"/><feComposite in="SourceGraphic"/></filter></defs><g transform="translate(-62 -189)"><ellipse class="a" cx="85.5" cy="15" rx="85.5" ry="15" transform="translate(110 406)"/><g transform="translate(153.357 223.185)"><g transform="translate(0 0)"><path class="b" d="M205.754,305.556s-2.368.158-2.94,3.587-8.577,124.9-8.577,124.9-1.72,6.7,9.14,6.708l97.81.064c10.856.013,9.149-6.688,9.149-6.688s-7.834-121.477-8.408-124.905-2.939-3.6-2.939-3.6Q252.372,305.589,205.754,305.556Z" transform="translate(-194.138 -248.811)"/><path class="c" d="M212.743,305.563s-2.376.158-2.948,3.587-8.577,124.9-8.577,124.9-1.72,6.7,9.138,6.7q48.909.048,97.808.077c10.858,0,9.149-6.688,9.149-6.688s-7.833-121.479-8.4-124.908-2.931-3.6-2.931-3.6Q259.361,305.594,212.743,305.563Z" transform="translate(-189.993 -248.807)"/><path class="d" d="M219.122,337.446a1.315,1.315,0,0,1-2.612.306c-2.779-23.042.086-39.769,6.019-50.841a7.562,7.562,0,0,0,2.1.306,4.9,4.9,0,0,0,.542.309c-5.924,10.571-8.81,26.96-6.051,49.919Zm22.693-66.7a26.8,26.8,0,0,1,6.442-.8,30.557,30.557,0,0,1,10.3,1.837c-.33.776-.669,1.594-1.02,2.43a27.435,27.435,0,0,0-9.277-1.633,24.435,24.435,0,0,0-5.191.561c-.37-.744-.8-1.549-1.251-2.4Zm38.369,19.242c7.133,11.061,11.634,26.41,10.826,45.345a1.311,1.311,0,1,1-2.62-.1c.744-17.522-3.163-31.82-9.47-42.318C279.261,292.239,279.7,291.221,280.184,289.988Z" transform="translate(-181.491 -269.949)"/></g><path class="e" d="M-644.033-5274.02c3.044-5.356,4.47-9.979,14.1-15.258a29.6,29.6,0,0,1,6.435-1.888" transform="translate(685.501 5292.987)"/><path class="e" d="M-602.709-5290.945s16.408,7.046,22.682,19.883" transform="translate(678.886 5293.817)"/></g><g transform="translate(100 284.782)"><g transform="translate(0 44.985)"><path class="f" d="M203.347,305.556s-1.877.125-2.331,2.844-6.8,99.012-6.8,99.012-1.363,5.31,7.245,5.317l77.54.051c8.606.01,7.253-5.3,7.253-5.3s-6.211-96.3-6.666-99.02-2.33-2.851-2.33-2.851Q240.3,305.582,203.347,305.556Z" transform="translate(-194.138 -305.556)"/><path class="g" d="M210.334,305.563s-1.884.125-2.337,2.844-6.8,99.012-6.8,99.012-1.363,5.309,7.244,5.309q38.773.038,77.539.061c8.607,0,7.253-5.3,7.253-5.3s-6.209-96.3-6.663-99.022-2.323-2.852-2.323-2.852Q247.291,305.588,210.334,305.563Z" transform="translate(-192.299 -305.554)"/></g><g transform="translate(26.915)"><path class="d" d="M218.359,323.458a1.042,1.042,0,0,1-2.071.243c-2.2-18.267.068-31.528,4.772-40.3a6,6,0,0,0,1.666.243,3.889,3.889,0,0,0,.43.245c-4.7,8.38-6.984,21.373-4.8,39.574Zm17.99-52.877a21.241,21.241,0,0,1,5.107-.632,24.224,24.224,0,0,1,8.163,1.457c-.262.615-.531,1.263-.809,1.927a21.75,21.75,0,0,0-7.354-1.295,19.374,19.374,0,0,0-4.115.445c-.293-.59-.63-1.228-.992-1.9Zm30.417,15.254c5.655,8.769,9.223,20.937,8.582,35.948a1.039,1.039,0,1,1-2.077-.077c.59-13.891-2.508-25.226-7.507-33.548C266.035,287.62,266.382,286.813,266.767,285.835Z" transform="translate(-215.442 -269.949)"/><path class="h" d="M-644.033-5277.575c2.413-4.246,3.543-7.911,11.18-12.1a23.5,23.5,0,0,1,5.1-1.5" transform="translate(649.992 5292.61)"/><path class="h" d="M-602.709-5290.945s13.008,5.586,17.981,15.761" transform="translate(636.184 5293.222)"/></g></g><g transform="translate(295.373 313.9) rotate(45)"><g transform="translate(0 0)"><path class="i" d="M16.545,0c-2.481,0-4.531,2.3-5.36,3.393C10.357,2.3,8.307,0,5.826,0,2.613,0,0,2.953,0,6.583a6.876,6.876,0,0,0,2.162,5.089.461.461,0,0,0,.073.1l8.621,8.6a.466.466,0,0,0,.659,0l8.908-8.9.092-.089c.073-.069.145-.138.225-.228a.453.453,0,0,0,.083-.111,7.036,7.036,0,0,0,1.548-4.454C22.371,2.953,19.757,0,16.545,0Z" transform="translate(0 0)"/></g></g><g class="j" transform="translate(285.95 354.907) rotate(-8)"><g transform="translate(0 21.333)"><path class="k" d="M13.469,21.333c-2.02,0-3.689,1.876-4.363,2.762-.675-.886-2.343-2.762-4.363-2.762C2.128,21.333,0,23.737,0,26.692a5.6,5.6,0,0,0,1.76,4.143.375.375,0,0,0,.06.077l7.019,7a.379.379,0,0,0,.536,0l7.252-7.249.075-.073c.059-.056.118-.113.183-.185a.369.369,0,0,0,.067-.09,5.728,5.728,0,0,0,1.26-3.626C18.212,23.737,16.085,21.333,13.469,21.333Z" transform="translate(0 -21.333)"/></g></g><g transform="translate(0 -144)"><g class="p" transform="matrix(1, 0, 0, 1, 62, 333)"><rect class="l" width="51" height="51" rx="19" transform="translate(183 55)"/></g><g transform="translate(259.545 400.057)"><g class="m"><path class="n" d="M15.207,324.965l-5.861,7.164a.517.517,0,0,0,.727.728L17.24,327c-.366-.326-.719-.658-1.047-.986C15.849,325.666,15.521,325.316,15.207,324.965Z" transform="translate(-9.23 -311.536)"/><path class="n" d="M117.56,11.69c-2-2-4.268-2.988-5.059-2.2-.041.041-4.178,5.684-6.252,8.512a6.957,6.957,0,0,0-3.363-1.534.914.914,0,0,0-.674.233c-.865.863.75,3.877,3.6,6.732,2.333,2.333,4.773,3.839,6.058,3.839a.918.918,0,0,0,.674-.233c.589-.589.025-2.18-1.3-4.038,2.829-2.074,8.47-6.211,8.51-6.251C120.549,15.96,119.564,13.695,117.56,11.69Z" transform="translate(-97.802 -9.218)"/></g></g></g><g transform="matrix(0.719, 0.695, -0.695, 0.719, 198.454, 4.559)"><g transform="translate(113.56 248.619) rotate(-60)"><g transform="translate(0 0)"><path class="i" d="M16.545,0c-2.481,0-4.531,2.3-5.36,3.393C10.357,2.3,8.307,0,5.826,0,2.613,0,0,2.953,0,6.583a6.876,6.876,0,0,0,2.162,5.089.461.461,0,0,0,.073.1l8.621,8.6a.466.466,0,0,0,.659,0l8.908-8.9.092-.089c.073-.069.145-.138.225-.228a.453.453,0,0,0,.083-.111,7.036,7.036,0,0,0,1.548-4.454C22.371,2.953,19.757,0,16.545,0Z" transform="translate(0 0)"/></g></g><path class="o" d="M124.773,230.667l3.65,24.781" transform="translate(30.507 -14.08) rotate(7)"/></g></g></svg>