<svg xmlns="http://www.w3.org/2000/svg" width="15.05" height="13.963" viewBox="0 0 15.05 13.963"><defs><style>.a{opacity:0.6;}.b{fill:none;stroke:#ff3e16;stroke-width:2px;}</style></defs><g class="a" transform="translate(1 1)"><g transform="translate(0 0)"><path class="b" d="M9.652,21.333c-1.448,0-2.643,1.345-3.127,1.979-.483-.635-1.679-1.979-3.127-1.979A3.644,3.644,0,0,0,0,25.173a4.011,4.011,0,0,0,1.261,2.969A.269.269,0,0,0,1.3,28.2l5.029,5.019a.272.272,0,0,0,.384,0l5.2-5.195.054-.052c.042-.04.084-.081.131-.133a.264.264,0,0,0,.048-.065,4.1,4.1,0,0,0,.9-2.6A3.644,3.644,0,0,0,9.652,21.333Z" transform="translate(0 -21.333)"/></g></g></svg>