<svg xmlns="http://www.w3.org/2000/svg" width="18.172" height="17.626" viewBox="0 0 18.172 17.626"><defs><style>.a{fill:#616e7d;}.b{fill:#e9e9f2;}</style></defs><g transform="translate(-357.803 -312.254)"><path class="a" d="M365.117,331.925l-.263.007h0Z" transform="translate(-3.74 -10.435)"/><path class="b" d="M363.2,336.4a6.349,6.349,0,0,1-1.914-4.045l-1.589.178-.022,0h-.021c-.124,0-.287.01-.449.03l-.1.015a8.845,8.845,0,0,0,14.765,5.651l-1.556-1.556a6.655,6.655,0,0,1-9.11-.276Z" transform="translate(-0.689 -10.663)"/><path class="b" d="M370,312.254a8.789,8.789,0,0,0-6.256,2.591q-.3.294-.558.612l1.566,1.567a6.69,6.69,0,0,1,.546-.625,6.644,6.644,0,0,1,11.345,4.526q1.092-.179,2.187-.354A8.843,8.843,0,0,0,370,312.254Z" transform="translate(-2.858)"/><path class="b" d="M358.718,315.64l-.915,6.19,6.174-.931L361.9,318.82l-1.566-1.566Z" transform="translate(0 -1.796)"/><path class="b" d="M384.852,338.138l1.556,1.556L388,341.288l.931-6.174-6.19.915Z" transform="translate(-13.23 -12.127)"/></g></svg>