<svg xmlns="http://www.w3.org/2000/svg" xmlns:xlink="http://www.w3.org/1999/xlink" width="18" height="18" viewBox="0 0 18 18"><defs><style>.a{fill:#6c50ff;}.b{clip-path:url(#a);}</style><clipPath id="a"><rect class="a" width="18" height="18" transform="translate(18 301.065)"/></clipPath></defs><g class="b" transform="translate(-18 -301.065)"><g transform="translate(18 301)"><path class="a" d="M14.688,5.518l-.8.8L16.313,8.74h-8V9.869h8L13.89,12.292l.8.8L18.474,9.3Z" transform="translate(-0.409 -0.271)"/><path class="a" d="M12.42,16.936H1.129V1.129H12.42V2.258h1.129V.565A.564.564,0,0,0,12.985,0H.565A.564.564,0,0,0,0,.565V17.5a.564.564,0,0,0,.565.565h12.42a.564.564,0,0,0,.565-.565V15.807H12.42Z" transform="translate(0 0)"/></g></g></svg>