<svg xmlns="http://www.w3.org/2000/svg" width="40" height="59.576" viewBox="0 0 40 59.576"><defs><style>.a{fill:#ffd1c8;}.b,.c{fill:#ff775b;}.d,.e{stroke:none;}.e{fill:#fffbfb;}</style></defs><g transform="translate(-207.403 -54.594)"><g transform="translate(207.403 58.594)"><path class="a" d="M274.59,10.941a5.471,5.471,0,1,0-5.471-5.471A5.476,5.476,0,0,0,274.59,10.941Z" transform="translate(-261.513 -4)"/><path class="b" d="M237.94,102.061a.7.7,0,0,0,.019-.34l-2.723-14.446a2.759,2.759,0,0,0-2.732-2.332H217.286a2.753,2.753,0,0,0-2.728,2.314l-2.727,14.464a.706.706,0,0,0,.018.34,2.433,2.433,0,0,0-.031.387,2.772,2.772,0,0,0,5.5.486l1.718-10.742-.022,34.279a2.774,2.774,0,0,0,5.548,0V109.5h.662V126.47a2.774,2.774,0,0,0,5.549,0l-.022-34.278,1.721,10.758a2.772,2.772,0,0,0,5.5-.5A2.429,2.429,0,0,0,237.94,102.061Z" transform="translate(-211.818 -73.668)"/></g><g class="c" transform="translate(223.403 92.905)"><path class="d" d="M 19 16 L 5 16 C 2.794389963150024 16 1 14.20561027526855 1 12 L 1 5 C 1 2.794389963150024 2.794389963150024 1 5 1 L 19 1 C 21.20561027526855 1 23 2.794389963150024 23 5 L 23 12 C 23 14.20561027526855 21.20561027526855 16 19 16 Z"/><path class="e" d="M 5 2 C 3.345790863037109 2 2 3.345789909362793 2 5 L 2 12 C 2 13.65421009063721 3.345790863037109 15 5 15 L 19 15 C 20.65420913696289 15 22 13.65421009063721 22 12 L 22 5 C 22 3.345789909362793 20.65420913696289 2 19 2 L 5 2 M 5 0 L 19 0 C 21.76141929626465 0 24 2.238579750061035 24 5 L 24 12 C 24 14.76142024993896 21.76141929626465 17 19 17 L 5 17 C 2.238580703735352 17 0 14.76142024993896 0 12 L 0 5 C 0 2.238579750061035 2.238580703735352 0 5 0 Z"/></g><circle class="b" cx="4" cy="4" r="4" transform="translate(231.403 90.905)"/></g></svg>