<svg xmlns="http://www.w3.org/2000/svg" xmlns:xlink="http://www.w3.org/1999/xlink" width="20" height="18" viewBox="0 0 20 18"><defs><style>.a{fill:#fff;}.b{opacity:0.9;clip-path:url(#a);}.c{fill:#23237a;stroke:#23237a;stroke-width:0.3px;}</style><clipPath id="a"><rect class="a" width="20" height="18" transform="translate(18 219)"/></clipPath></defs><g class="b" transform="translate(-18 -219)"><g transform="translate(20.037 219)"><g transform="translate(0)"><path class="a" d="M1.873,4.208h12.06L14.97,16.526l-1.989.995-11.757-.26L.446,15.187Z"/><path class="a" d="M18.694,14.857,17.816,4.719a1.34,1.34,0,0,0-1.373-1.165H14.707V3.483A3.657,3.657,0,0,0,10.905,0,3.657,3.657,0,0,0,7.1,3.483v.071H5.368A1.34,1.34,0,0,0,3.995,4.717L3.116,14.858a2.8,2.8,0,0,0,.844,2.218,3.356,3.356,0,0,0,2.35.94H15.5a3.356,3.356,0,0,0,2.35-.94A2.8,2.8,0,0,0,18.694,14.857ZM8.255,3.483a2.549,2.549,0,0,1,2.65-2.427,2.549,2.549,0,0,1,2.65,2.427v.071h-5.3Zm8.75,12.877a2.12,2.12,0,0,1-1.5.6H6.31a2.12,2.12,0,0,1-1.5-.6,1.766,1.766,0,0,1-.54-1.419L5.143,4.8a.219.219,0,0,1,.224-.19H7.1v1.3a.578.578,0,0,0,1.152,0v-1.3h5.3v1.3a.578.578,0,0,0,1.152,0v-1.3h1.735a.219.219,0,0,1,.224.192l.878,10.138A1.767,1.767,0,0,1,17.005,16.359Z" transform="translate(-3.107)"/></g><g transform="translate(5.034 8.793)"><path class="c" d="M16.144,14.8a.614.614,0,0,0-.815,0l-2.572,2.356-.989-.906a.614.614,0,0,0-.815,0,.5.5,0,0,0,0,.746l1.4,1.279a.614.614,0,0,0,.815,0l2.98-2.729A.5.5,0,0,0,16.144,14.8Z" transform="translate(-10.784 -14.642)"/></g></g></g></svg>