<svg xmlns="http://www.w3.org/2000/svg" width="16.704" height="16.704" viewBox="0 0 16.704 16.704"><defs><style>.a{opacity:0.9;}.b{fill:#fff;}</style></defs><g class="a" transform="translate(-378.706 -196.602)"><path class="b" d="M382.446,207.073a6.878,6.878,0,1,0,7.019-6.731A6.886,6.886,0,0,0,382.446,207.073Zm10.5-2.106a4.2,4.2,0,1,1-7.267,4.2,4.247,4.247,0,0,1,1.447-5.629A4.2,4.2,0,0,1,392.945,204.967Z" transform="translate(-2.265 -2.265)"/><path class="b" d="M395.37,205.773a8.521,8.521,0,0,0-.019-1.814l-1.407-.337a7.484,7.484,0,0,0-.31-1.1l1.031-1.018a8.19,8.19,0,0,0-.421-.807,8.037,8.037,0,0,0-.5-.755l-1.388.415a6.871,6.871,0,0,0-.814-.8l.384-1.4a8.451,8.451,0,0,0-1.581-.89l-1,1.054a7.156,7.156,0,0,0-1.1-.284l-.368-1.4a8.324,8.324,0,0,0-1.811.023l-.339,1.406a6.946,6.946,0,0,0-1.1.309l-1.019-1.031a8,8,0,0,0-.807.418,8.256,8.256,0,0,0-.754.5l.413,1.39a7.065,7.065,0,0,0-.8.814l-1.4-.383a8.408,8.408,0,0,0-.89,1.579l1.053,1a7.237,7.237,0,0,0-.282,1.1l-1.4.368a8.35,8.35,0,0,0,.019,1.814l1.409.335a7.3,7.3,0,0,0,.307,1.1l-1.031,1.017a7.846,7.846,0,0,0,.418.8,8.407,8.407,0,0,0,.5.757l1.39-.414a7.138,7.138,0,0,0,.814.8l-.383,1.4a8.277,8.277,0,0,0,1.578.888l1-1.052a6.8,6.8,0,0,0,1.1.282l.367,1.4a8.506,8.506,0,0,0,1.813-.019l.335-1.409a6.949,6.949,0,0,0,1.1-.309l1.021,1.031a8.211,8.211,0,0,0,1.559-.923l-.413-1.388a7.136,7.136,0,0,0,.8-.814l1.4.383a8.307,8.307,0,0,0,.888-1.579l-1.053-1a7.109,7.109,0,0,0,.284-1.1Zm-8.426,4.575a5.4,5.4,0,0,1,.227-10.791,5.509,5.509,0,0,1,4.963,3.564,4.983,4.983,0,0,1,.319,1.944A5.4,5.4,0,0,1,386.944,210.348Z" transform="translate(0 0)"/></g></svg>