<svg xmlns="http://www.w3.org/2000/svg" width="20" height="20" viewBox="0 0 20 20"><defs><style>.a{fill:#fff;opacity:0.9;}</style></defs><path class="a" d="M19.938,5.966,18.2,1.9A3.121,3.121,0,0,0,15.328,0H4.674A3.121,3.121,0,0,0,1.8,1.9L.063,5.966A.782.782,0,0,0,0,6.273V7.288A2.62,2.62,0,0,0,1.563,9.683v7.192A3.128,3.128,0,0,0,4.688,20H7.657a.781.781,0,0,0,.781-.781V13.007h3.125v6.211a.781.781,0,0,0,.781.781h2.969a3.128,3.128,0,0,0,3.125-3.125v-.781a.781.781,0,0,0-.781-.781H13.126V12.226a.781.781,0,0,0-.781-.781H7.657a.781.781,0,0,0-.781.781v3.086H3.126V9.855a2.613,2.613,0,0,0,1.328-.7A2.612,2.612,0,0,0,8.137,9.14a2.651,2.651,0,0,0,3.726,0,2.612,2.612,0,0,0,3.684.011,2.613,2.613,0,0,0,1.328.7v2.331a.781.781,0,1,0,1.562,0v-2.5A2.621,2.621,0,0,0,20,7.288V6.272a.782.782,0,0,0-.063-.307ZM13.126,16.874h3.75a1.564,1.564,0,0,1-1.562,1.563H13.126ZM3.237,2.511a1.561,1.561,0,0,1,1.437-.949H15.328a1.561,1.561,0,0,1,1.437.949l1.262,2.957H1.975ZM6.876,16.874v1.563H4.688a1.564,1.564,0,0,1-1.562-1.562ZM2.618,8.343A1.056,1.056,0,0,1,1.563,7.288V7.031H3.673v.258A1.056,1.056,0,0,1,2.618,8.343ZM7.344,7.288a1.055,1.055,0,1,1-2.109,0V7.031H7.344ZM10,8.343A1.1,1.1,0,0,1,8.907,7.249V7.031h2.187v.219A1.1,1.1,0,0,1,10,8.343Zm3.711,0a1.056,1.056,0,0,1-1.055-1.055V7.031h2.109v.258A1.056,1.056,0,0,1,13.712,8.343Zm3.672,0a1.056,1.056,0,0,1-1.055-1.055V7.031h2.109v.258A1.056,1.056,0,0,1,17.383,8.343Zm0,0" transform="translate(-0.001 0.001)"/></svg>