<svg xmlns="http://www.w3.org/2000/svg" width="42.942" height="38" viewBox="0 0 42.942 38"><defs><style>.a{fill:#4797ff;}</style></defs><g transform="translate(0 -2.167)"><path class="a" d="M40.662,9.388H17l3.329-3.329a2.28,2.28,0,0,0-3.224-3.224L12.54,7.4,7.973,2.834A2.28,2.28,0,0,0,4.749,6.058L8.078,9.387H2.28A2.281,2.281,0,0,0,0,11.667v26.22a2.281,2.281,0,0,0,2.28,2.28H40.662a2.28,2.28,0,0,0,2.28-2.28V11.667A2.279,2.279,0,0,0,40.662,9.388Zm-7.791,26.22H4.56V13.948H32.871Zm4.7-13.3a2.993,2.993,0,1,1,2.993-2.994A2.992,2.992,0,0,1,37.576,22.309Z" transform="translate(0 0)"/></g></svg>