<svg xmlns="http://www.w3.org/2000/svg" width="41.652" height="38.5" viewBox="0 0 41.652 38.5"><defs><style>.a{fill:#ff775b;}</style></defs><g transform="translate(0 -18.4)"><g transform="translate(0 18.4)"><path class="a" d="M33.875,28.455A12.065,12.065,0,0,0,11.52,24.447a6.911,6.911,0,0,0-1.268-.12,6.613,6.613,0,0,0-6.6,6.6,7.218,7.218,0,0,0,.137,1.37A9.189,9.189,0,0,0,0,39.71a9.824,9.824,0,0,0,2.492,6.5,8.9,8.9,0,0,0,6.167,3.1h7.434a1.156,1.156,0,0,0,0-2.313H8.762a7.293,7.293,0,0,1-6.449-7.3,6.865,6.865,0,0,1,3.4-5.91,1.166,1.166,0,0,0,.505-1.4,4.2,4.2,0,0,1-.257-1.473,4.3,4.3,0,0,1,4.291-4.291,4.218,4.218,0,0,1,1.465.257,1.162,1.162,0,0,0,1.447-.591A9.752,9.752,0,0,1,31.691,29.5a1.155,1.155,0,0,0,.959,1.028,8.335,8.335,0,0,1-.788,16.462H25.55a1.156,1.156,0,0,0,0,2.313H31.99a10.247,10.247,0,0,0,6.869-3.392,10.66,10.66,0,0,0-4.985-17.456Z" transform="translate(0 -18.4)"/><path class="a" d="M172.441,193.5a1.153,1.153,0,0,0,0-1.636l-6.124-6.124a1.17,1.17,0,0,0-.814-.343,1.134,1.134,0,0,0-.814.343l-6.124,6.124a1.161,1.161,0,0,0,.814,1.979,1.128,1.128,0,0,0,.814-.343l4.154-4.154V208.44a1.156,1.156,0,0,0,2.313,0V189.348l4.154,4.154A1.143,1.143,0,0,0,172.441,193.5Z" transform="translate(-144.673 -171.096)"/></g></g></svg>