<svg xmlns="http://www.w3.org/2000/svg" width="17.517" height="17.517" viewBox="0 0 17.517 17.517"><defs><style>.a{fill:#e9e9f2;}</style></defs><g transform="translate(0)"><g transform="translate(0)"><path class="a" d="M17.473,15.01a.684.684,0,0,0-1.34.279.715.715,0,0,1-.145.6.7.7,0,0,1-.547.26H2.077a.7.7,0,0,1-.547-.26.715.715,0,0,1-.145-.6A7.56,7.56,0,0,1,8.577,9.3q.09,0,.181,0t.182,0a7.527,7.527,0,0,1,6.079,3.341.684.684,0,1,0,1.137-.762,8.9,8.9,0,0,0-4.612-3.5,4.653,4.653,0,1,0-5.57,0A8.9,8.9,0,0,0,.045,15.01a2.079,2.079,0,0,0,2.032,2.507H15.441a2.079,2.079,0,0,0,2.032-2.507Zm-12-10.357a3.284,3.284,0,1,1,3.451,3.28l-.166,0-.166,0A3.288,3.288,0,0,1,5.474,4.653Z" transform="translate(0)"/></g></g></svg>