<svg xmlns="http://www.w3.org/2000/svg" xmlns:xlink="http://www.w3.org/1999/xlink" width="20" height="20" viewBox="0 0 20 20"><defs><style>.a{fill:#6c50ff;}.b{clip-path:url(#a);}</style><clipPath id="a"><rect class="a" width="20" height="20" transform="translate(18 301)"/></clipPath></defs><g class="b" transform="translate(-18 -301)"><g transform="translate(19.496 301)"><g transform="translate(0)"><path class="a" d="M9.65,10.793h.133a3.828,3.828,0,0,0,2.924-1.265c1.6-1.8,1.332-4.886,1.3-5.181A4.232,4.232,0,0,0,12,.585,4.612,4.612,0,0,0,9.766,0H9.7A4.619,4.619,0,0,0,7.464.568,4.234,4.234,0,0,0,5.428,4.347c-.029.295-.295,3.381,1.3,5.181A3.812,3.812,0,0,0,9.65,10.793ZM6.535,4.451c0-.012,0-.025,0-.033.137-2.974,2.248-3.294,3.153-3.294h.05c1.12.025,3.024.481,3.153,3.294a.081.081,0,0,0,0,.033c0,.029.295,2.85-1.025,4.335a2.719,2.719,0,0,1-2.136.888H9.7a2.71,2.71,0,0,1-2.132-.888C6.249,7.309,6.531,4.476,6.535,4.451Z" transform="translate(-1.204)"/><path class="a" d="M18.456,15.358v-.012c0-.033,0-.066,0-.1-.025-.821-.079-2.742-1.879-3.356l-.041-.012a11.969,11.969,0,0,1-3.443-1.568.56.56,0,1,0-.643.917,12.919,12.919,0,0,0,3.787,1.73c.966.344,1.074,1.377,1.1,2.323a.833.833,0,0,0,0,.1,7.53,7.53,0,0,1-.087,1.282,15.266,15.266,0,0,1-7.313,1.7,15.354,15.354,0,0,1-7.317-1.7,7.128,7.128,0,0,1-.087-1.282c0-.033,0-.066,0-.1.029-.946.137-1.979,1.1-2.323a13.04,13.04,0,0,0,3.787-1.73.56.56,0,1,0-.643-.917A11.838,11.838,0,0,1,3.345,11.87l-.041.012c-1.8.618-1.854,2.539-1.879,3.356a.833.833,0,0,1,0,.1v.012a6.361,6.361,0,0,0,.212,1.879.532.532,0,0,0,.216.261,15.69,15.69,0,0,0,8.1,1.983,15.737,15.737,0,0,0,8.1-1.983.555.555,0,0,0,.216-.261A6.674,6.674,0,0,0,18.456,15.358Z" transform="translate(-1.419 0.553)"/></g></g></g></svg>